<svg xmlns="http://www.w3.org/2000/svg" version="1.1" xmlns:xlink="http://www.w3.org/1999/xlink" xmlns:svgjs="http://svgjs.dev/svgjs" viewBox="0 0 11.769770276185877 11.005680070028848"><g transform="matrix(1,0,0,1,0.9483360658273146,8.977344004201534)"><g><path d=" M 0.0915 1.0709999999999997 L 0.0915 0.005999999999999783 L 0.5805 0.005999999999999783 Q 0.6585 0.005999999999999783 0.7245 0.037499999999999645 Q 0.7905 0.06899999999999973 0.8385 0.12224999999999975 Q 0.8865000000000001 0.17549999999999966 0.9127500000000001 0.24149999999999971 Q 0.9390000000000001 0.30749999999999966 0.9390000000000001 0.37499999999999967 Q 0.9390000000000001 0.43649999999999967 0.921 0.4934999999999997 Q 0.903 0.5504999999999998 0.8685 0.5977499999999998 Q 0.834 0.6449999999999998 0.786 0.6794999999999998 L 1.0110000000000001 1.0709999999999997 L 0.6900000000000001 1.0709999999999997 L 0.5025000000000001 0.7439999999999998 L 0.384 0.7439999999999998 L 0.384 1.0709999999999997 L 0.0915 1.0709999999999997 M 0.384 0.48899999999999977 L 0.5685 0.48899999999999977 Q 0.5865 0.48899999999999977 0.603 0.4754999999999997 Q 0.6195 0.46199999999999974 0.63075 0.43649999999999967 Q 0.642 0.4109999999999997 0.642 0.37499999999999967 Q 0.642 0.3374999999999997 0.62925 0.31274999999999975 Q 0.6165 0.2879999999999997 0.59775 0.27449999999999974 Q 0.579 0.2609999999999997 0.561 0.2609999999999997 L 0.384 0.2609999999999997 L 0.384 0.48899999999999977 M 1.8779816894531252 0.8159999999999997 L 1.8779816894531252 1.0709999999999997 L 1.118981689453125 1.0709999999999997 L 1.118981689453125 0.005999999999999783 L 1.864481689453125 0.005999999999999783 L 1.864481689453125 0.2609999999999997 L 1.411481689453125 0.2609999999999997 L 1.411481689453125 0.4109999999999997 L 1.798481689453125 0.4109999999999997 L 1.798481689453125 0.6479999999999997 L 1.411481689453125 0.6479999999999997 L 1.411481689453125 0.8159999999999997 L 1.8779816894531252 0.8159999999999997 M 2.321958984375 0.5474999999999998 L 2.321958984375 1.0709999999999997 L 2.029458984375 1.0709999999999997 L 2.029458984375 0.005999999999999783 L 2.2574589843750004 0.005999999999999783 L 2.684958984375 0.5474999999999998 L 2.684958984375 0.005999999999999783 L 2.9774589843750006 0.005999999999999783 L 2.9774589843750006 1.0709999999999997 L 2.744958984375 1.0709999999999997 L 2.321958984375 0.5474999999999998 M 4.00500146484375 0.2609999999999997 L 3.69900146484375 0.2609999999999997 L 3.69900146484375 1.0709999999999997 L 3.4065014648437506 1.0709999999999997 L 3.4065014648437506 0.2609999999999997 L 3.0990014648437505 0.2609999999999997 L 3.0990014648437505 0.005999999999999783 L 4.00500146484375 0.005999999999999783 L 4.00500146484375 0.2609999999999997 M 4.590057128906251 1.0799999999999996 Q 4.468557128906251 1.0799999999999996 4.3695571289062505 1.0342499999999997 Q 4.27055712890625 0.9884999999999997 4.19930712890625 0.9112499999999997 Q 4.12805712890625 0.8339999999999997 4.0898071289062505 0.7372499999999997 Q 4.051557128906251 0.6404999999999997 4.051557128906251 0.5369999999999997 Q 4.051557128906251 0.43049999999999977 4.092057128906251 0.3344999999999997 Q 4.13255712890625 0.2384999999999997 4.2053071289062505 0.16274999999999973 Q 4.278057128906251 0.08699999999999974 4.377807128906251 0.04349999999999965 Q 4.47755712890625 -2.220446049250313e-16 4.59605712890625 -2.220446049250313e-16 Q 4.71755712890625 -2.220446049250313e-16 4.8165571289062505 0.045749999999999735 Q 4.915557128906251 0.09149999999999969 4.986057128906251 0.16949999999999976 Q 5.056557128906251 0.24749999999999972 5.09480712890625 0.3442499999999997 Q 5.13305712890625 0.4409999999999997 5.13305712890625 0.5429999999999997 Q 5.13305712890625 0.6479999999999997 5.09330712890625 0.7439999999999998 Q 5.053557128906251 0.8399999999999997 4.9808071289062505 0.9157499999999997 Q 4.9080571289062505 0.9914999999999997 4.80905712890625 1.0357499999999997 Q 4.71005712890625 1.0799999999999996 4.590057128906251 1.0799999999999996 M 4.348557128906251 0.5399999999999997 Q 4.348557128906251 0.5939999999999996 4.36355712890625 0.6442499999999998 Q 4.378557128906251 0.6944999999999997 4.40855712890625 0.7342499999999997 Q 4.43855712890625 0.7739999999999998 4.48430712890625 0.7972499999999998 Q 4.53005712890625 0.8204999999999998 4.593057128906251 0.8204999999999998 Q 4.656057128906251 0.8204999999999998 4.702557128906251 0.7964999999999998 Q 4.749057128906251 0.7724999999999997 4.778307128906251 0.7312499999999997 Q 4.80755712890625 0.6899999999999997 4.821807128906251 0.6397499999999997 Q 4.83605712890625 0.5894999999999997 4.83605712890625 0.5369999999999997 Q 4.83605712890625 0.48299999999999976 4.821057128906251 0.43349999999999966 Q 4.80605712890625 0.3839999999999997 4.776057128906251 0.3442499999999997 Q 4.7460571289062505 0.30449999999999966 4.6995571289062505 0.2819999999999997 Q 4.653057128906251 0.25949999999999973 4.591557128906251 0.25949999999999973 Q 4.52855712890625 0.25949999999999973 4.48280712890625 0.28349999999999975 Q 4.43705712890625 0.30749999999999966 4.40705712890625 0.3472499999999997 Q 4.377057128906251 0.3869999999999997 4.36280712890625 0.4372499999999997 Q 4.348557128906251 0.4874999999999997 4.348557128906251 0.5399999999999997 M 6.078079101562501 1.0709999999999997 L 6.078079101562501 0.5099999999999997 L 5.899579101562501 0.9044999999999997 L 5.743579101562501 0.9044999999999997 L 5.565079101562501 0.5099999999999997 L 5.565079101562501 1.0709999999999997 L 5.272579101562501 1.0709999999999997 L 5.272579101562501 0.005999999999999783 L 5.592079101562501 0.005999999999999783 L 5.821579101562501 0.5069999999999997 L 6.052579101562501 0.005999999999999783 L 6.370579101562501 0.005999999999999783 L 6.370579101562501 1.0709999999999997 L 6.078079101562501 1.0709999999999997 M 6.814584960937502 0.005999999999999783 L 7.141584960937502 0.005999999999999783 L 7.4805849609375015 1.0709999999999997 L 7.183584960937502 1.0709999999999997 L 7.119084960937502 0.8624999999999997 L 6.835584960937502 0.8624999999999997 L 6.772584960937501 1.0709999999999997 L 6.4740849609375015 1.0709999999999997 L 6.814584960937502 0.005999999999999783 M 7.072584960937502 0.6674999999999998 L 6.978084960937502 0.29249999999999976 L 6.879084960937502 0.6674999999999998 L 7.072584960937502 0.6674999999999998 M 8.316069580078127 0.2609999999999997 L 8.010069580078126 0.2609999999999997 L 8.010069580078126 1.0709999999999997 L 7.717569580078126 1.0709999999999997 L 7.717569580078126 0.2609999999999997 L 7.410069580078126 0.2609999999999997 L 7.410069580078126 0.005999999999999783 L 8.316069580078127 0.005999999999999783 L 8.316069580078127 0.2609999999999997 M 8.437604736328126 1.0709999999999997 L 8.437604736328126 0.005999999999999783 L 8.730104736328126 0.005999999999999783 L 8.730104736328126 1.0709999999999997 L 8.437604736328126 1.0709999999999997 M 8.869629638671876 0.5294999999999997 Q 8.869629638671876 0.4319999999999997 8.906379638671877 0.3382499999999997 Q 8.943129638671877 0.24449999999999972 9.013629638671876 0.1679999999999997 Q 9.084129638671877 0.09149999999999969 9.185379638671877 0.045749999999999735 Q 9.286629638671876 -2.220446049250313e-16 9.414129638671877 -2.220446049250313e-16 Q 9.567129638671876 -2.220446049250313e-16 9.681129638671877 0.06374999999999975 Q 9.795129638671877 0.12749999999999972 9.850629638671876 0.2324999999999997 L 9.627129638671876 0.39149999999999974 Q 9.607629638671877 0.33899999999999975 9.570879638671876 0.31049999999999967 Q 9.534129638671876 0.2819999999999997 9.491379638671877 0.2707499999999997 Q 9.448629638671877 0.25949999999999973 9.408129638671877 0.25949999999999973 Q 9.345129638671876 0.25949999999999973 9.299379638671876 0.28424999999999967 Q 9.253629638671876 0.3089999999999997 9.224379638671877 0.3494999999999997 Q 9.195129638671876 0.3899999999999997 9.180879638671877 0.43949999999999967 Q 9.166629638671877 0.48899999999999977 9.166629638671877 0.5384999999999998 Q 9.166629638671877 0.5939999999999996 9.183129638671877 0.6449999999999998 Q 9.199629638671876 0.6959999999999997 9.231129638671877 0.7357499999999997 Q 9.262629638671877 0.7754999999999997 9.308379638671877 0.7979999999999997 Q 9.354129638671877 0.8204999999999998 9.411129638671877 0.8204999999999998 Q 9.451629638671877 0.8204999999999998 9.493629638671877 0.8077499999999997 Q 9.535629638671876 0.7949999999999997 9.570129638671876 0.7664999999999997 Q 9.604629638671877 0.7379999999999998 9.622629638671876 0.6899999999999997 L 9.861129638671876 0.8324999999999997 Q 9.829629638671877 0.9104999999999998 9.756129638671876 0.9659999999999997 Q 9.682629638671877 1.0214999999999996 9.589629638671877 1.0507499999999996 Q 9.496629638671877 1.0799999999999996 9.405129638671877 1.0799999999999996 Q 9.286629638671876 1.0799999999999996 9.188379638671876 1.0327499999999998 Q 9.090129638671877 0.9854999999999997 9.018879638671876 0.9067499999999997 Q 8.947629638671877 0.8279999999999997 8.908629638671876 0.7297499999999997 Q 8.869629638671876 0.6314999999999997 8.869629638671876 0.5294999999999997" fill="#7d3b31" fill-rule="nonzero"></path></g><g></g><g clip-path="url(&quot;#SvgjsClipPath1001&quot;)"><g clip-path="url(&quot;#b56210363-ca17-4488-8446-a286cbaac9270e3d889a-1a29-4695-af8f-f77f667d705b&quot;)"><path d=" M 4.928758185629724 -8.02900793837422 L 8.537910465656495 -4.419807566454636 L 8.537910465656495 -0.6231449963453253 L 4.928758185629724 -0.6231449963453253 Z" fill="#c87b4f" transform="matrix(1,0,0,1,0,0)" fill-rule="nonzero"></path></g><g clip-path="url(&quot;#b56210363-ca17-4488-8446-a286cbaac9270e3d889a-1a29-4695-af8f-f77f667d705b&quot;)"><path d=" M 4.928758185629724 -8.02900793837422 L 1.3195578137101405 -4.419807566454636 L 1.3195578137101405 -0.6231449963453253 L 4.928758185629724 -0.6231449963453253 Z" fill="#b55226" transform="matrix(1,0,0,1,0,0)" fill-rule="nonzero"></path></g><g clip-path="url(&quot;#b56210363-ca17-4488-8446-a286cbaac9270e3d889a-1a29-4695-af8f-f77f667d705b&quot;)"><path d=" M 4.928758185629724 -8.02900793837422 L 4.509829707325286 -7.610079460069781 L 4.509829707325286 -0.6231449963453253 L 4.928758185629724 -0.6231449963453253 Z" fill="#d2936a" transform="matrix(1,0,0,1,0,0)" fill-rule="nonzero"></path></g><g clip-path="url(&quot;#b56210363-ca17-4488-8446-a286cbaac9270e3d889a-1a29-4695-af8f-f77f667d705b&quot;)"><path d=" M 5.5535680570717245 -0.623144996345327 L 7.733717834017552 -0.623144996345327 L 7.733717834017552 -4.032379277943495 L 5.5535680570717245 -6.211807676497109 Z" fill="#b55226" transform="matrix(1,0,0,1,0,0)" fill-rule="nonzero"></path></g><g clip-path="url(&quot;#b56210363-ca17-4488-8446-a286cbaac9270e3d889a-1a29-4695-af8f-f77f667d705b&quot;)"><path d=" M 7.736891898943289 -0.623144996345327 L 7.981583449581905 -0.623144996345327 L 7.981583449581905 -4.029638040053085 L 7.736891898943289 -4.029638040053085 Z" fill="#7d3b31" transform="matrix(1,0,0,1,0,0)" fill-rule="nonzero"></path></g><g clip-path="url(&quot;#b56210363-ca17-4488-8446-a286cbaac9270e3d889a-1a29-4695-af8f-f77f667d705b&quot;)"><path d=" M 5.5535680570717245 -6.2120000440683665 L 7.736314796229519 -4.029638040053085 L 7.981054438760949 -4.029638040053085 L 5.5535680570717245 -6.456739686599796 Z" fill="#d2936a" transform="matrix(1,0,0,1,0,0)" fill-rule="nonzero"></path></g><g clip-path="url(&quot;#b56210363-ca17-4488-8446-a286cbaac9270e3d889a-1a29-4695-af8f-f77f667d705b&quot;)"><path d=" M 3.9070459227921868 -0.6198266557411474 L 2.156789575712434 -0.6198266557411474 L 2.156789575712434 -4.029060937339315 L 3.9070459227921868 -5.778547814134042 Z" fill="#ffffff" transform="matrix(1,0,0,1,0,0)" fill-rule="nonzero"></path></g><g clip-path="url(&quot;#b56210363-ca17-4488-8446-a286cbaac9270e3d889a-1a29-4695-af8f-f77f667d705b&quot;)"><path d=" M 2.1568857594980617 -0.623144996345327 L 1.9121942088594461 -0.623144996345327 L 1.9121942088594461 -4.029638040053085 L 2.1568857594980617 -4.029638040053085 Z" fill="#e1b697" transform="matrix(1,0,0,1,0,0)" fill-rule="nonzero"></path></g><g clip-path="url(&quot;#b56210363-ca17-4488-8446-a286cbaac9270e3d889a-1a29-4695-af8f-f77f667d705b&quot;)"><path d=" M 3.9101718958251093 -5.782010430416664 L 2.157462862211832 -4.029686131945899 L 1.9127232196804023 -4.029686131945899 L 3.9101718958251093 -6.026750072948094 Z" fill="#d2936a" transform="matrix(1,0,0,1,0,0)" fill-rule="nonzero"></path></g><g clip-path="url(&quot;#b56210363-ca17-4488-8446-a286cbaac9270e3d889a-1a29-4695-af8f-f77f667d705b&quot;)"><path d=" M 3.2364044774982603 -2.168626063822245 L 2.9917129268596443 -2.168626063822245 L 2.9917129268596443 -5.108435379661071 L 3.2364044774982603 -5.108435379661071 Z" fill="#e1b697" transform="matrix(1,0,0,1,0,0)" fill-rule="nonzero"></path></g><g clip-path="url(&quot;#b56210363-ca17-4488-8446-a286cbaac9270e3d889a-1a29-4695-af8f-f77f667d705b&quot;)"><path d=" M 3.9101718958251093 -2.711246890444788 L 2.157462862211832 -0.9588745000812091 L 1.9127232196804023 -0.9588745000812091 L 3.9101718958251093 -2.9559384410834033 Z" fill="#d2936a" transform="matrix(1,0,0,1,0,0)" fill-rule="nonzero"></path></g><g clip-path="url(&quot;#b56210363-ca17-4488-8446-a286cbaac9270e3d889a-1a29-4695-af8f-f77f667d705b&quot;)"><path d=" M 2.9114956496455697 -5.24145755518513 L 2.9114956496455697 -0.6230969044525123 M 4.057814006764683 -3.217462154206988 L 1.7457000759367085 -0.9053001314861993" fill="none" transform="matrix(1,0,0,1,0,0)" fill-rule="nonzero" stroke-dasharray="none" stroke-miterlimit="4" stroke-linejoin="miter" stroke-linecap="butt" stroke-width="0.1611078409275478" stroke="#b55226"></path></g><g clip-path="url(&quot;#b56210363-ca17-4488-8446-a286cbaac9270e3d889a-1a29-4695-af8f-f77f667d705b&quot;)"><path d=" M 3.236644936962331 -0.6198747476339612 L 2.991953386323715 -0.6198747476339612 L 2.991953386323715 -2.036950461296983 L 3.236644936962331 -2.036950461296983 Z" fill="#e1b697" transform="matrix(1,0,0,1,0,0)" fill-rule="nonzero"></path></g><g clip-path="url(&quot;#b56210363-ca17-4488-8446-a286cbaac9270e3d889a-1a29-4695-af8f-f77f667d705b&quot;)"><path d=" M 5.943641399687648 -1.3499096805534165 C 5.943641399687648 -1.1121433624800456 5.805906218667798 -0.919342964187944 5.635997561355253 -0.919342964187944 C 5.466185087828335 -0.919342964187944 5.230775272502859 -1.1121433624800456 5.230775272502859 -1.3499096805534165 C 5.230775272502859 -1.587724090519603 5.466185087828335 -1.7805725807045185 5.635997561355253 -1.7805725807045185 C 5.805906218667798 -1.7805725807045185 5.943641399687648 -1.587724090519603 5.943641399687648 -1.3499096805534165" fill="#e1b697" transform="matrix(1,0,0,1,0,0)" fill-rule="nonzero"></path></g><g clip-path="url(&quot;#b56210363-ca17-4488-8446-a286cbaac9270e3d889a-1a29-4695-af8f-f77f667d705b&quot;)"><path d=" M 5.849910300592784 -1.3479379129480353 C 5.849910300592784 -1.5096709484821673 5.771472423412835 -1.640769448293658 5.674855810749121 -1.640769448293658 C 5.578239198085406 -1.640769448293658 5.499849412798271 -1.5096709484821673 5.499849412798271 -1.3479379129480353 C 5.499849412798271 -1.1862048774139025 5.578239198085406 -1.0551063776024119 5.674855810749121 -1.0551063776024119 C 5.771472423412835 -1.0551063776024119 5.849910300592784 -1.1862048774139025 5.849910300592784 -1.3479379129480353" fill="#b55226" transform="matrix(1,0,0,1,0,0)" fill-rule="nonzero"></path></g><g clip-path="url(&quot;#b56210363-ca17-4488-8446-a286cbaac9270e3d889a-1a29-4695-af8f-f77f667d705b&quot;)"><path d=" M 9.211725975876156 -0.25 L 0.6613721686550909 -0.25 L 0.6613721686550909 -0.6367069101189289 L 9.211725975876156 -0.6367069101189289 Z" fill="#b55226" transform="matrix(1,0,0,1,0,0)" fill-rule="nonzero"></path></g></g></g><defs><clipPath id="SvgjsClipPath1001"><path d=" M 0.6613721686550909 -8.02900793837422 h 8.550353807221066 v 7.779007938374219 h -8.550353807221066 Z"></path></clipPath><clipPath id="b56210363-ca17-4488-8446-a286cbaac9270e3d889a-1a29-4695-af8f-f77f667d705b"><path d=" M 0.6132802758408975 -8.077099831188413 L 9.259817868690352 -8.077099831188413 L 9.259817868690352 -0.20190810718580732 L 0.6132802758408975 -0.20190810718580732 Z"></path></clipPath></defs></svg>